<svg xmlns="http://www.w3.org/2000/svg" width="100%" height="100%" viewBox="0 0 476 400"><path fill="#FFF" d="M0 0h476v400H0V0z"/><path fill="none" d="M74 53h392v287H74V53zm-.5 0v287m65-287v287m66-287v287m65-287v287m65-287v287m66-287v287m65-287v287"/><path fill="none" stroke="#E6E6E6" d="M74 340.5h392m-392-57h392m-392-58h392m-392-57h392m-392-58h392m-392-58h392"/><path fill="none" d="M74 53h392v287H74V53z"/><path fill="none" stroke="#CCD6EB" d="M73.5 340v10m65-10v10m66-10v10m65-10v10m65-10v10m66-10v10m65-10v10"/><text transform="translate(256.86 379)" fill="#666" font-family="'LucidaSans'" font-size="12">Cost</text><path fill="none" stroke="#CCD6EB" d="M74 340.5h392"/><text transform="rotate(-90 123.485 97.39)" fill="#666" font-family="'LucidaSans'" font-size="12">Revenue</text><path fill="none" d="M74 53v287"/><g fill="#DF5353" stroke="#000" stroke-miterlimit="10"><path d="M164 329a3 3 0 1 1 0-.003V329zm-2-12a3 3 0 1 1 0-.003V317zm-20 5a3 3 0 1 1 0-.003V322zm-15-12a3 3 0 1 1 0-.003V310zm0 12a3 3 0 1 1 0-.003V322z"/><path d="M126 325a3 3 0 1 1 0-.003V325zm-1 8a3 3 0 1 1 0-.003V333zm-1-67a3 3 0 1 1 0-.003V266zm0 50a3 3 0 1 1 0-.003V316z"/><path d="M122 317a3 3 0 1 1 0-.003V317zm2 10a3 3 0 1 1 0-.003V327zm-1 10a3 3 0 1 1 0-.003V337z"/><path d="M122 335a3 3 0 1 1 0-.003V335z"/><path d="M119 331a3 3 0 1 1 0-.003V331z"/><path d="M118 327a3 3 0 1 1 0-.003V327zm-1-19a3 3 0 1 1 0-.003V308z"/><path d="M118 325a3 3 0 1 1 0-.003V325zm3-61a3 3 0 1 1 0-.003V264z"/><path d="M120 325a3 3 0 1 1 0-.003V325z"/><path d="M119 324a3 3 0 1 1 0-.003V324z"/><path d="M119 330a3 3 0 1 1 0-.003V330z"/><path d="M117 326a3 3 0 1 1 0-.003V326z"/><path d="M117 326a3 3 0 1 1 0-.003V326zm-5 6a3 3 0 1 1 0-.003V332z"/><path d="M113 321a3 3 0 1 1 0-.003V321zm0 16a3 3 0 1 1 0-.003V337z"/><path d="M119 322a3 3 0 1 1 0-.003V322zm3-17a3 3 0 1 1 0-.003V305zm-1 25a3 3 0 1 1 0-.003V330zm-6-20a3 3 0 1 1 0-.003V310z"/><path d="M122 322a3 3 0 1 1 0-.003V322zm3 10a3 3 0 1 1 0-.003V332z"/><path d="M124 318a3 3 0 1 1 0-.003V318zm-5-9a3 3 0 1 1 0-.003V309zm-1 19a3 3 0 1 1 0-.003V328z"/><path d="M117 327a3 3 0 1 1 0-.003V327z"/><path d="M113 329a3 3 0 1 1 0-.003V329z"/><path d="M111 330a3 3 0 1 1 0-.003V330zm9-5a3 3 0 1 1 0-.003V325z"/><path d="M120 326a3 3 0 1 1 0-.003V326zm-1 7a3 3 0 1 1 0-.003V333zm0-33a3 3 0 1 1 0-.003V300z"/><path d="M116 330a3 3 0 1 1 0-.003V330zm0-12a3 3 0 1 1 0-.003V318z"/><path d="M117 332a3 3 0 1 1 0-.003V332zm10-6a3 3 0 1 1 0-.003V326z"/><path d="M127 328a3 3 0 1 1 0-.003V328zm-1-14a3 3 0 1 1 0-.003V314zm0-32a3 3 0 1 1 0-.003V282zm-4 13a3 3 0 1 1 0-.003V295z"/><path d="M122 331a3 3 0 1 1 0-.003V331zm-1-9a3 3 0 1 1 0-.003V322z"/><path d="M126 326a3 3 0 1 1 0-.003V326zm5 6a3 3 0 1 1 0-.003V332zm0-13a3 3 0 1 1 0-.003V319z"/><path d="M130 331a3 3 0 1 1 0-.003V331z"/><path d="M128 335a3 3 0 1 1 0-.003V335z"/><path d="M125 334a3 3 0 1 1 0-.003V334zm10-45a3 3 0 1 1 0-.003V289zm1 39a3 3 0 1 1 0-.003V328z"/><path d="M133 331a3 3 0 1 1 0-.003V331zm9-2a3 3 0 1 1 0-.003V329zm-1-10a3 3 0 1 1 0-.003V319z"/><path d="M140 330a3 3 0 1 1 0-.003V330zm0-14a3 3 0 1 1 0-.003V316zm-10 0a3 3 0 1 1 0-.003V316zm-11 15a3 3 0 1 1 0-.003V331zm-1-8a3 3 0 1 1 0-.003V323z"/><path d="M119 324a3 3 0 1 1 0-.003V324zm-1-12a3 3 0 1 1 0-.003V312zm-1 26a3 3 0 1 1 0-.003V338zm-1-78a3 3 0 1 1 0-.003V260z"/><path d="M115 338a3 3 0 1 1 0-.003V338zm8-9a3 3 0 1 1 0-.003V329z"/><path d="M124 332a3 3 0 1 1 0-.003V332z"/><path d="M123 336a3 3 0 1 1 0-.003V336zm14-9a3 3 0 1 1 0-.003V327z"/><path d="M139 333a3 3 0 1 1 0-.003V333z"/><path d="M140 335a3 3 0 1 1 0-.003V335zm0-22a3 3 0 1 1 0-.003V313zm2-9a3 3 0 1 1 0-.003V304z"/><path d="M139 330a3 3 0 1 1 0-.003V330zm0-15a3 3 0 1 1 0-.003V315z"/><path d="M141 333a3 3 0 1 1 0-.003V333z"/><path d="M142 329a3 3 0 1 1 0-.003V329zm-1-10a3 3 0 1 1 0-.003V319z"/><path d="M140 319a3 3 0 1 1 0-.003V319zm-3-8a3 3 0 1 1 0-.003V311z"/><path d="M138 315a3 3 0 1 1 0-.003V315zm3 9a3 3 0 1 1 0-.003V324zm-5-23a3 3 0 1 1 0-.003V301zm-9-3a3 3 0 1 1 0-.003V298zm2 23a3 3 0 1 1 0-.003V321z"/><path d="M132 325a3 3 0 1 1 0-.003V325zm6 4a3 3 0 1 1 0-.003V329zm-1-38a3 3 0 1 1 0-.003V291zm-12 16a3 3 0 1 1 0-.003V307z"/><path d="M125 302a3 3 0 1 1 0-.003V302zm-2 27a3 3 0 1 1 0-.003V329z"/><path d="M123 329a3 3 0 1 1 0-.003V329z"/><path d="M120 332a3 3 0 1 1 0-.003V332z"/><path d="M114 331a3 3 0 1 1 0-.003V331zm0-27a3 3 0 1 1 0-.003V304zm-2 19a3 3 0 1 1 0-.003V323z"/><path d="M112 324a3 3 0 1 1 0-.003V324zm-13 14a3 3 0 0 1-6 .005 3 3 0 1 1 6-.008V338zm12-24a3 3 0 1 1 0-.003V314z"/><path d="M115 329a3 3 0 1 1 0-.003V329zm4-7a3 3 0 1 1 0-.003V322z"/><path d="M118 319a3 3 0 1 1 0-.003V319zm0 16a3 3 0 1 1 0-.003V335zm-1-34a3 3 0 1 1 0-.003V301z"/><path d="M116 334a3 3 0 1 1 0-.003V334zm-1-34a3 3 0 1 1 0-.003V300zm12-1a3 3 0 1 1 0-.003V299z"/><path d="M131 296a3 3 0 1 1 0-.003V296zm0-23a3 3 0 1 1 0-.003V273zm0-140a3 3 0 1 1-6.001-.001A3 3 0 0 1 131 133zm3 189a3 3 0 1 1 0-.003V322zm-4-7a3 3 0 1 1 0-.003V315z"/><path d="M128 318a3 3 0 1 1 0-.003V318zm-3-14a3 3 0 1 1 0-.003V304zm10-2a3 3 0 1 1 0-.003V302zm-2 11a3 3 0 1 1 0-.003V313zm2 9a3 3 0 1 1 0-.003V322z"/><path d="M134 326a3 3 0 1 1 0-.003V326zm1-25a3 3 0 1 1 0-.003V301z"/><path d="M131 328a3 3 0 1 1 0-.003V328zm-3-25a3 3 0 1 1 0-.003V303zm26 27a3 3 0 1 1 0-.003V330zm49-28a3 3 0 1 1 0-.003V302zm10 13a3 3 0 1 1 0-.003V315z"/><path d="M205 303a3 3 0 1 1 0-.003V303zm-11 19a3 3 0 1 1 0-.003V322zm6-4a3 3 0 1 1 0-.003V318z"/><path d="M205 318a3 3 0 1 1 0-.003V318zm10-3a3 3 0 1 1 0-.003V315zm1-18a3 3 0 1 1 0-.003V297zm-9 14a3 3 0 1 1 0-.003V311z"/><path d="M207 309a3 3 0 1 1 0-.003V309zm3 16a3 3 0 1 1 0-.003V325z"/><path d="M205 328a3 3 0 1 1 0-.003V328zm-4-13a3 3 0 1 1 0-.003V315zm33-2a3 3 0 1 1 0-.003V313zm-7-5a3 3 0 1 1 0-.003V308zm-28-9a3 3 0 1 1 0-.003V299z"/><path d="M196 302a3 3 0 1 1 0-.003V302zm-7 22a3 3 0 1 1 0-.003V324zm-3-28a3 3 0 1 1 0-.003V296zm-2 34a3 3 0 1 1 0-.003V330zm-27-32a3 3 0 1 1 0-.003V298zm0-20a3 3 0 1 1 0-.003V278zm1 59a3 3 0 1 1 0-.003V337zm4-23a3 3 0 1 1 0-.003V314z"/><path d="M155 335a3 3 0 1 1 0-.003V335zm-2-29a3 3 0 1 1 0-.003V306zm-3 16a3 3 0 1 1 0-.003V322zm7 0a3 3 0 1 1 0-.003V322zm-29 13a3 3 0 1 1 0-.003V335z"/><path d="M152 311a3 3 0 1 1 0-.003V311zm0 14a3 3 0 1 1 0-.003V325z"/><path d="M154 322a3 3 0 1 1 0-.003V322zm0 8a3 3 0 1 1 0-.003V330z"/><path d="M151 326a3 3 0 1 1 0-.003V326zm8-23a3 3 0 1 1 0-.003V303z"/><path d="M156 325a3 3 0 1 1 0-.003V325z"/><path d="M154 324a3 3 0 1 1 0-.003V324zm5-11a3 3 0 1 1 0-.003V313zm-8-28a3 3 0 1 1 0-.003V285zm-2 16a3 3 0 1 1 0-.003V301zm9-2a3 3 0 1 1 0-.003V299zm-5-35a3 3 0 1 1 0-.003V264zm18 60a3 3 0 1 1 0-.003V324zm2-68a3 3 0 1 1 0-.003V256zm-1 77a3 3 0 1 1 0-.003V333z"/><path d="M170 325a3 3 0 1 1 0-.003V325zm-3-38a3 3 0 1 1 0-.003V287zm1-20a3 3 0 1 1 0-.003V267zm-17 15a3 3 0 1 1 0-.003V282zm1 26a3 3 0 1 1 0-.003V308zm-4-10a3 3 0 1 1 0-.003V298z"/><path d="M153 305a3 3 0 1 1 0-.003V305zm1 15a3 3 0 1 1 0-.003V320z"/><path d="M150 324a3 3 0 1 1 0-.003V324zm-1-35a3 3 0 1 1 0-.003V289zm5-8a3 3 0 1 1 0-.003V281z"/><path d="M155 286a3 3 0 1 1 0-.003V286zm0 33a3 3 0 1 1 0-.003V319zm-3-12a3 3 0 1 1 0-.003V307zm13-2a3 3 0 1 1 0-.003V305zm1-8a3 3 0 1 1 0-.003V297zm7-6a3 3 0 1 1 0-.003V291zm-7 22a3 3 0 1 1 0-.003V313z"/><path d="M169 317a3 3 0 1 1 0-.003V317zm-27-27a3 3 0 1 1 0-.003V290zm-20 49a3 3 0 1 1 0-.003V339zm41-31a3 3 0 1 1 0-.003V308zm9-75a3 3 0 1 1 0-.003V233zm8 92a3 3 0 1 1 0-.003V325zm-23-101a3 3 0 1 1 0-.003V224zm20 85a3 3 0 1 1 0-.003V309zm21 2a3 3 0 1 1 0-.003V311zm-18-34a3 3 0 1 1 0-.003V277z"/><path d="M176 231a3 3 0 1 1 0-.003V231zm2 88a3 3 0 1 1 0-.003V319zm13-36a3 3 0 1 1 0-.003V283zm12-2a3 3 0 1 1 0-.003V281zm-4 42a3 3 0 1 1 0-.003V323zm13-31a3 3 0 1 1 0-.003V292zm-8 11a3 3 0 1 1 0-.003V303zm-2-88a3 3 0 1 1 0-.003V215zm-9 14a3 3 0 1 1 0-.003V229zm18 34a3 3 0 1 1 0-.003V263zm-5-7a3 3 0 1 1 0-.003V256zm-4 33a3 3 0 1 1 0-.003V289z"/><path d="M200 294a3 3 0 1 1 0-.003V294zm8-6a3 3 0 1 1 0-.003V288zm-18-4a3 3 0 1 1 0-.003V284z"/><path d="M211 287a3 3 0 1 1 0-.003V287z"/><path d="M212 287a3 3 0 1 1 0-.003V287zm2-30a3 3 0 1 1 0-.003V257zm5-5a3 3 0 1 1 0-.003V252zm0 20a3 3 0 1 1 0-.003V272z"/><path d="M216 272a3 3 0 1 1 0-.003V272zm-5 18a3 3 0 1 1 0-.003V290zm12-7a3 3 0 1 1 0-.003V283zm10-28a3 3 0 1 1 0-.003V255zm-6-15a3 3 0 1 1 0-.003V240zm-1 32a3 3 0 1 1 0-.003V272zm-8 19a3 3 0 1 1 0-.003V291z"/><path d="M225 268a3 3 0 1 1 0-.003V268zm-6-5a3 3 0 1 1 0-.003V263z"/><path d="M221 261a3 3 0 1 1 0-.003V261zm9-29a3 3 0 1 1 0-.003V232zm3 26a3 3 0 1 1 0-.003V258zm13-15a3 3 0 1 1 0-.003V243zm-6 25a3 3 0 1 1 0-.003V268zm5-43a3 3 0 1 1 0-.003V225zm21-68a3 3 0 1 1-6.001-.001A3 3 0 0 1 266 157zm16 60a3 3 0 1 1 0-.003V217zm18-44a3 3 0 1 1-6.001-.001A3 3 0 0 1 300 173zm4-51a3.002 3.002 0 1 1-6.003-.001A3.002 3.002 0 0 1 304 122zm16 102a3 3 0 1 1 0-.003V224zm7-67a3 3 0 1 1-6.001-.001A3 3 0 0 1 327 157zm-21-14a3 3 0 1 1-6.001-.001A3 3 0 0 1 306 143zm-10 57a3 3 0 1 1 0-.003V200zm-101 43a3 3 0 1 1 0-.003V243zm34 2a3 3 0 1 1 0-.003V245zm-80 29a3 3 0 1 1 0-.003V274zm209-103a3 3 0 1 1-6.001-.001A3 3 0 0 1 358 171zm-112 65a3 3 0 1 1 0-.003V236z"/><path d="M242 244a3 3 0 1 1 0-.003V244zm-4-37a3 3 0 1 1 0-.003V207zm107-4a3 3 0 1 1 0-.003V203zm31-134a3 3 0 1 1-6.001-.001A3 3 0 0 1 376 69zm28 49a3 3 0 1 1-6.001-.001A3 3 0 0 1 404 118zm-24-23a3 3 0 1 1-6.001-.001A3 3 0 0 1 380 95zm17 36a3 3 0 1 1-6.001-.001A3 3 0 0 1 397 131zm10-61a3 3 0 1 1-6.001-.001A3 3 0 0 1 407 70zm-36 125a3 3 0 1 1-6.001-.001A3 3 0 0 1 371 195zm0 19a3 3 0 1 1 0-.003V214zm25-5a3 3 0 1 1 0-.003V209zm17-86a3 3 0 1 1-6.001-.001A3 3 0 0 1 413 123zm-13 126a3 3 0 1 1 0-.003V249zm-15 34a3 3 0 1 1 0-.003V283zm-15-16a3 3 0 1 1 0-.003V267zm-45 1a3 3 0 1 1 0-.003V268zM80 333a3.001 3.001 0 0 1-6 0c0-1.656 1.342-3 2.998-3.002A3.002 3.002 0 0 1 80 332.997V333zm126-68a3 3 0 1 1 0-.003V265zm67-47a3 3 0 1 1 0-.003V218zm-77 79a3 3 0 1 1 0-.003V297zm-59 16a3 3 0 1 1 0-.003V313zm104-22a3 3 0 1 1 0-.003V291zm46-26a3 3 0 1 1 0-.003V265zm-49 11a3 3 0 1 1 0-.003V276zm-21-2a3 3 0 1 1 0-.003V274zm-46 11a3 3 0 1 1 0-.003V285zm-2 14a3 3 0 1 1 0-.003V299zm1-30a3 3 0 1 1 0-.003V269zm-68 44a3 3 0 0 1-6 .005 3 3 0 1 1 6-.008V313zm72-19a3 3 0 1 1 0-.003V294zm-4-17a3 3 0 1 1 0-.003V277zm1-39a3 3 0 1 1 0-.003V238zm12 20a3 3 0 1 1 0-.003V258zm1-11a3 3 0 1 1 0-.003V247zm-4-26a3 3 0 1 1 0-.003V221zm3 46a3 3 0 1 1 0-.003V267z"/><path d="M176 288a3 3 0 1 1 0-.003V288zm0-89a3 3 0 1 1 0-.003V199z"/><path d="M175 289a3 3 0 1 1 0-.003V289zm7-14a3 3 0 1 1 0-.003V275zm-15 40a3 3 0 1 1 0-.003V315zm5-10a3 3 0 1 1 0-.003V305zm1-25a3 3 0 1 1 0-.003V280z"/><path d="M168 309a3 3 0 1 1 0-.003V309zm-8-38a3 3 0 1 1 0-.003V271zm-3 30a3 3 0 1 1 0-.003V301zm3 10a3 3 0 1 1 0-.003V311zm-6-32a3 3 0 1 1 0-.003V279z"/><path d="M156 299a3 3 0 1 1 0-.003V299z"/><path d="M154 293a3 3 0 1 1 0-.003V293z"/><path d="M154 296a3 3 0 1 1 0-.003V296zm-1-31a3 3 0 1 1 0-.003V265zm1-14a3 3 0 1 1 0-.003V251zm2-29a3 3 0 1 1 0-.003V222z"/><path d="M155 301a3 3 0 1 1 0-.003V301zm12-12a3 3 0 1 1 0-.003V289zm0-27a3 3 0 1 1 0-.003V262zm-4 39a3 3 0 1 1 0-.003V301zm-1-23a3 3 0 1 1 0-.003V278z"/><path d="M164 299a3 3 0 1 1 0-.003V299zm5-30a3 3 0 1 1 0-.003V269zm-1 14a3 3 0 1 1 0-.003V283zm3-6a3 3 0 1 1 0-.003V277zm-3-68a3 3 0 1 1 0-.003V209zm-4-35a3 3 0 1 1-6.001-.001A3 3 0 0 1 164 174zm-1 118a3 3 0 1 1 0-.003V292z"/><path d="M168 271a3 3 0 1 1 0-.003V271zm6-23a3 3 0 1 1 0-.003V248zm-7-37a3 3 0 1 1 0-.003V211zm-6 62a3 3 0 1 1 0-.003V273zm-1-17a3 3 0 1 1 0-.003V256zm2 46a3 3 0 1 1 0-.003V302z"/><path d="M157 273a3 3 0 1 1 0-.003V273zm6 33a3 3 0 1 1 0-.003V306zm-2 12a3 3 0 1 1 0-.003V318zm16-32a3 3 0 1 1 0-.003V286zm1-24a3 3 0 1 1 0-.003V262zm1-72a3 3 0 1 1-6.001-.001A3 3 0 0 1 179 190zm-5 79a3 3 0 1 1 0-.003V269z"/><path d="M176 266a3 3 0 1 1 0-.003V266zm1-47a3 3 0 1 1 0-.003V219zm1 82a3 3 0 1 1 0-.003V301zm1-24a3 3 0 1 1 0-.003V277z"/><path d="M179 271a3 3 0 1 1 0-.003V271zm-2 16a3 3 0 1 1 0-.003V287zm0 20a3 3 0 1 1 0-.003V307z"/><path d="M178 313a3 3 0 1 1 0-.003V313zm0-11a3 3 0 1 1 0-.003V302z"/><path d="M173 304a3 3 0 1 1 0-.003V304zm-2-23a3 3 0 1 1 0-.003V281zm2 8a3 3 0 1 1 0-.003V289zm-8-2a3 3 0 1 1 0-.003V287zm0 28a3 3 0 1 1 0-.003V315z"/><path d="M165 288a3 3 0 1 1 0-.003V288z"/><path d="M170 289a3 3 0 1 1 0-.003V289zm-1-22a3 3 0 1 1 0-.003V267z"/><path d="M171 294a3 3 0 1 1 0-.003V294z"/><path d="M166 294a3 3 0 1 1 0-.003V294zm-1-9a3 3 0 1 1 0-.003V285zm-4 20a3 3 0 1 1 0-.003V305z"/><path d="M161 304a3 3 0 1 1 0-.003V304zm2-39a3 3 0 1 1 0-.003V265zm-8 56a3 3 0 1 1 0-.003V321zm-2-149a3 3 0 1 1-6.001-.001A3 3 0 0 1 153 172zm1 116a3 3 0 1 1 0-.003V288zm-1-36a3 3 0 1 1 0-.003V252zm-1 8a3 3 0 1 1 0-.003V260zm-6 48a3 3 0 1 1 0-.003V308zm-60 32a3 3 0 0 1-6 .005 3 3 0 1 1 6-.008V340z"/><path d="M156 288a3 3 0 1 1 0-.003V288zm-13 24a3 3 0 1 1 0-.003V312zm0-29a3 3 0 1 1 0-.003V283zm-3 22a3 3 0 1 1 0-.003V305zm-3 12a3 3 0 1 1 0-.003V317z"/><path d="M140 310a3 3 0 1 1 0-.003V310z"/><path d="M139 308a3 3 0 1 1 0-.003V308zm7-3a3 3 0 1 1 0-.003V305zm0-35a3 3 0 1 1 0-.003V270zm-1 24a3 3 0 1 1 0-.003V294z"/><path d="M144 273a3 3 0 1 1 0-.003V273zm-1 11a3 3 0 1 1 0-.003V284zm-3 19a3 3 0 1 1 0-.003V303zm9-36a3 3 0 1 1 0-.003V267zm6 40a3 3 0 1 1 0-.003V307zm1 19a3 3 0 1 1 0-.003V326zm-4-37a3 3 0 1 1 0-.003V289z"/><path d="M151 292a3 3 0 1 1 0-.003V292zm-3 22a3 3 0 1 1 0-.003V314zm9-12a3 3 0 1 1 0-.003V302zm2 18a3 3 0 1 1 0-.003V320zm8-154a3 3 0 1 1-6.001-.001A3 3 0 0 1 167 166zm7 101a3 3 0 1 1 0-.003V267zm-4 8a3 3 0 1 1 0-.003V275z"/><path d="M171 163a3 3 0 1 1-6.001-.001A3 3 0 0 1 171 163zm-3 99a3 3 0 1 1 0-.003V262zm-1 41a3 3 0 1 1 0-.003V303zm6 4a3 3 0 1 1 0-.003V307zm0-15a3 3 0 1 1 0-.003V292zm-1-21a3 3 0 1 1 0-.003V271z"/><path d="M173 272a3 3 0 1 1 0-.003V272zm3 26a3 3 0 1 1 0-.003V298zm-6-47a3 3 0 1 1 0-.003V251z"/><path d="M169 268a3 3 0 1 1 0-.003V268zm-2 33a3 3 0 1 1 0-.003V301zm12-29a3 3 0 1 1 0-.003V272zm-2-10a3 3 0 1 1 0-.003V262z"/></g><g fill="none"><path d="M77.719 340H99.03l9.027-3.277.827-1.313.662-1.029.101-.154.204-.313.168-.256.215-.326.122-.184 1.104-1.633.138-.201.729-1.049.146-.209.157-.227.27-.381.755-1.053.046-.063.108-.15.062-.082.146-.199.015-.02.177-.24.189-.26.282-.381.29-.389.007-.01.135-.181.097-.126.25-.332.277-.365.097-.123.152-.201.015-.02.011-.015.085-.109.089-.115.048-.063.188-.24.11-.145.28-.359.028-.037.121-.154.04-.051.348-.441.005-.006.373-.469.089-.111.229-.282.312-.388.367-.451.411-.5.145-.176.183-.217.09-.109.09-.105.138-.164.183-.217.341-.402.318-.375.173-.201.015-.02.047-.057.179-.207.026-.03.785-.903.034-.041.055-.063.282-.322.008-.008.451-.512.017-.02.243-.271.063-.072.247-.274.233-.262.274-.304.227-.25.424-.462.086-.092.137-.146.194-.212.163-.178.005-.004.035-.039.155-.166.397-.422.091-.098 1.146-1.201.48-.494.606-.621.021-.021.104-.104.123-.125.118-.119.063-.063.423-.425.216-.215.494-.49 1.423-1.387.087-.085.17-.161.344-.328.986-.933.146-.135.168-.156.063-.059.47-.437.534-.49.182-.164.321-.293.139-.124.109-.102.004-.004.973-.869.27-.237.476-.418.396-.349.104-.092h.002l.427-.371.098-.084.006-.006.16-.139.168-.145.133-.115.065-.055.109-.096.021-.02.346-.295.015-.012.539-.455.178-.148.526-.439.061-.052.158-.132.008-.008.22-.182.321-.267.572-.47.453-.369.813-.656.977-.775.447-.354.124-.1 1.657-1.282.129-.101.555-.422.288-.219.433-.324.014-.011.723-.54.146-.107.438-.324.062-.043.132-.097.632-.463.114-.084.052-.037.421-.307.263-.188.006-.005.048-.034.451-.324.108-.08.092-.063.21-.148.189-.137.086-.062.094-.065.017-.013.189-.136.017-.01.196-.141.004-.003.049-.034.134-.095.131-.093.028-.021.336-.235.502-.351.004-.003.027-.02.041-.028.15-.104.262-.181.076-.056.064-.043.447-.309.11-.076.458-.313.028-.021.052-.035.444-.301.05-.035.01-.006.017-.01.7-.471.158-.107.813-.541.12-.078.232-.156.071-.047.104-.066.296-.191.635-.416.029-.02.833-.539.038-.023.162-.105.027-.018.153-.1.207-.133.676-.434.141-.088.021-.014.225-.143.363-.229.312-.194.114-.072.34-.213.412-.256.094-.058.521-.323.032-.021.202-.123.102-.063.035-.021.152-.095.729-.445.188-.111.023-.016.188-.115.021-.016.087-.053.354-.213.081-.049.092-.055.094-.057.014-.008.088-.054.487-.292.157-.096.305-.182.213-.125.089-.053.02-.012.185-.107.521-.307.044-.025.005-.002.037-.023.195-.111.228-.134.344-.2.059-.033.021-.012.103-.061.016-.008.166-.098.438-.254.254-.146.05-.027.122-.069.431-.247.283-.16.212-.121.117-.066.069-.039.035-.02.166-.096.096-.055.167-.096.453-.254.363-.205.063-.035.229-.127.923-.514.455-.252.117-.064.147-.08.003-.002.219-.118.287-.157.026-.016.049-.025.012-.006.688-.375.074-.041.109-.061.582-.313.041-.021.234-.125.017-.01.135-.072.025-.015.344-.187.064-.031.506-.271.196-.104.279-.146 2.009-1.053.492-.254.293-.15 1.238-.635.02-.01 1.901-.959 2.878-1.42.931-.451.771-.371 2.24-1.063 1.223-.572 1.178-.545.952-.438.217-.102 1.218-.555 1.188-.533.161-.071.65-.29.076-.035 1.361-.604.683-.299.09-.037.925-.402.672-.289.419-.184 1.021-.436.409-.175.216-.092.522-.222.36-.152.823-.346.248-.104.622-.26 1.813-.749.729-.299.308-.125.035-.014.691-.281.418-.17.774-.313 1.707-.682.216-.086 1.464-.575.15-.062 1.07-.418.529-.205.722-.277.247-.096.117-.045 2.146-.818 1.663-.625 1.916-.711 1.383-.51.651-.238.618-.225 1.879-.677.771-.274 2.745-.969.184-.064 1.213-.424 4.117-1.41.101-.032 1.936-.649.848-.281 1.275-.422 2.351-.771.963-.313.533-.174 19.609-5.979 7.555-2.141 8.66-2.354 5.134-1.351 8.746-2.226 3.728-.921 4.563-1.105 1.398-.336 13.958-3.234 5.12-1.141 2.23-.49 18.144-3.826 13.311-2.645 11.878-2.26.196-.037.541-.104 4.976-.916 4.445-.807 4.489-.802 11.393-1.983 1.019-.174 2.263-.385 4.113-.691 2.752-.459 6.612-1.086"/><path stroke="#2864FF" stroke-width="3" d="M67.719 340H99.03l9.027-3.277.827-1.313.662-1.029.101-.154.204-.313.168-.256.215-.326.122-.184 1.104-1.633.138-.201.729-1.049.146-.209.157-.227.27-.381.755-1.053.046-.063.108-.15.062-.082.146-.199.015-.02.177-.24.189-.26.282-.381.29-.389.007-.01.135-.181.097-.126.25-.332.277-.365.097-.123.152-.201.015-.02.011-.015.085-.109.089-.115.048-.063.188-.24.11-.145.28-.359.028-.037.121-.154.04-.051.348-.441.005-.006.373-.469.089-.111.229-.282.312-.388.367-.451.411-.5.145-.176.183-.217.09-.109.09-.105.138-.164.183-.217.341-.402.318-.375.173-.201.015-.02.047-.057.179-.207.026-.03.785-.903.034-.041.055-.063.282-.322.008-.008.451-.512.017-.02.243-.271.063-.072.247-.274.233-.262.274-.304.227-.25.424-.462.086-.092.137-.146.194-.212.163-.178.005-.004.035-.039.155-.166.397-.422.091-.098 1.146-1.201.48-.494.606-.621.021-.021.104-.104.123-.125.118-.119.063-.063.423-.425.216-.215.494-.49 1.423-1.387.087-.085.17-.161.344-.328.986-.933.146-.135.168-.156.063-.059.47-.437.534-.49.182-.164.321-.293.139-.124.109-.102.004-.004.973-.869.27-.237.476-.418.396-.349.104-.092h.002l.427-.371.098-.084.006-.006.16-.139.168-.145.133-.115.065-.055.109-.096.021-.02.346-.295.015-.012.539-.455.178-.148.526-.439.061-.052.158-.132.008-.008.22-.182.321-.267.572-.47.453-.369.813-.656.977-.775.447-.354.124-.1 1.657-1.282.129-.101.555-.422.288-.219.433-.324.014-.011.723-.54.146-.107.438-.324.062-.043.132-.097.632-.463.114-.084.052-.037.421-.307.263-.188.006-.005.048-.034.451-.324.108-.08.092-.063.21-.148.189-.137.086-.062.094-.065.017-.013.189-.136.017-.01.196-.141.004-.003.049-.034.134-.095.131-.093.028-.021.336-.235.502-.351.004-.003.027-.02.041-.028.15-.104.262-.181.076-.056.064-.043.447-.309.11-.076.458-.313.028-.021.052-.035.444-.301.05-.035.01-.006.017-.01.7-.471.158-.107.813-.541.12-.078.232-.156.071-.047.104-.066.296-.191.635-.416.029-.02.833-.539.038-.023.162-.105.027-.018.153-.1.207-.133.676-.434.141-.088.021-.014.225-.143.363-.229.312-.194.114-.072.34-.213.412-.256.094-.058.521-.323.032-.021.202-.123.102-.063.035-.021.152-.095.729-.445.188-.111.023-.016.188-.115.021-.016.087-.053.354-.213.081-.049.092-.055.094-.057.014-.008.088-.054.487-.292.157-.096.305-.182.213-.125.089-.053.02-.012.185-.107.521-.307.044-.025.005-.002.037-.023.195-.111.228-.134.344-.2.059-.033.021-.012.103-.061.016-.008.166-.098.438-.254.254-.146.05-.027.122-.069.431-.247.283-.16.212-.121.117-.066.069-.039.035-.02.166-.096.096-.055.167-.096.453-.254.363-.205.063-.035.229-.127.923-.514.455-.252.117-.064.147-.08.003-.002.219-.118.287-.157.026-.016.049-.025.012-.006.688-.375.074-.041.109-.061.582-.313.041-.021.234-.125.017-.01.135-.072.025-.015.344-.187.064-.031.506-.271.196-.104.279-.146 2.009-1.053.492-.254.293-.15 1.238-.635.02-.01 1.901-.959 2.878-1.42.931-.451.771-.371 2.24-1.063 1.223-.572 1.178-.545.952-.438.217-.102 1.218-.555 1.188-.533.161-.071.65-.29.076-.035 1.361-.604.683-.299.09-.037.925-.402.672-.289.419-.184 1.021-.436.409-.175.216-.092.522-.222.36-.152.823-.346.248-.104.622-.26 1.813-.749.729-.299.308-.125.035-.014.691-.281.418-.17.774-.313 1.707-.682.216-.086 1.464-.575.15-.062 1.07-.418.529-.205.722-.277.247-.096.117-.045 2.146-.818 1.663-.625 1.916-.711 1.383-.51.651-.238.618-.225 1.879-.677.771-.274 2.745-.969.184-.064 1.213-.424 4.117-1.41.101-.032 1.936-.649.848-.281 1.275-.422 2.351-.771.963-.313.533-.174 19.609-5.979 7.555-2.141 8.66-2.354 5.134-1.351 8.746-2.226 3.728-.921 4.563-1.105 1.398-.336 13.958-3.234 5.12-1.141 2.23-.49 18.144-3.826 13.311-2.645 11.878-2.26.196-.037.541-.104 4.976-.916 4.445-.807 4.489-.802 11.393-1.983 1.019-.174 2.263-.385 4.113-.691 2.752-.459 6.612-1.086h10"/></g><g fill="none"><path d="M161.195 340V230.561"/><path stroke="#46A032" stroke-width="3" stroke-miterlimit="10" d="M161.195 340V230.561"/></g><text transform="translate(125.843 21)" fill="#333" font-family="'LucidaSans'" font-size="18">Non-linear regression analysis</text><text transform="translate(163.979 42.6)" fill="#333" font-family="'LucidaSans'" font-size="18">for optimal budgeting</text><path fill="#FFF" stroke="#999" d="M100.5 70.5h157v28h-157v-28z"/><path fill="none" d="M108 84h16"/><path fill="#DF5353" stroke="#000" stroke-miterlimit="10" d="M119 84a3 3 0 1 1-6.001 0A3 3 0 0 1 119 84V84z"/><text transform="translate(129 88)" fill="#333" font-family="'Arial-BoldMT'" font-size="12">Day (Cost, Revenue)</text><g fill="#666" font-family="'LucidaSans'" font-size="11"><text transform="translate(70.522 359)">0</text><text transform="translate(132.64 359)">1k</text><text transform="translate(197.974 359)">2k</text><text transform="translate(263.307 359)">3k</text><text transform="translate(328.64 359)">4k</text><text transform="translate(393.974 359)">5k</text><text transform="translate(452.33 359)">6k</text></g><g fill="#666" font-family="'LucidaSans'" font-size="11"><text transform="translate(52.044 344)">0</text><text transform="translate(45.615 287)">5k</text><text transform="translate(38.66 229)">10k</text><text transform="translate(38.66 172)">15k</text><text transform="translate(38.66 114)">20k</text><text transform="translate(38.66 57)">25k</text></g></svg>