<?xml version="1.0" encoding="utf-8"?>
<svg xmlns="http://www.w3.org/2000/svg" width="100%" height="100%" viewBox="0 0 16 16">
  <circle fill="#00B4FF" cx="8" cy="8" r="8"/>
  <rect fill="#FFFFFF" x="6.88" y="11.059" width="2.351" height="1.941"/>
  <path fill="#FFFFFF" d="M5.57,3.51C4.587,4.043,4.062,4.947,4,6.223h2.279c0-0.371,0.128-0.729,0.383-1.074
  	C6.917,4.803,7.35,4.631,7.96,4.631c0.621,0,1.047,0.141,1.282,0.42c0.234,0.279,0.352,0.59,0.352,0.93
  	c0,0.295-0.105,0.566-0.314,0.814L8.82,7.189L8.245,7.572C7.678,7.949,7.325,8.281,7.187,8.57C7.05,8.859,6.966,9.383,6.935,10.139
  	h2.129C9.07,9.781,9.105,9.516,9.168,9.346C9.27,9.075,9.473,8.841,9.773,8.641l0.563-0.369c0.566-0.375,0.951-0.687,1.15-0.926
  	C11.829,6.947,12,6.454,12,5.874c0-0.949-0.395-1.666-1.182-2.149C10.035,3.242,9.048,3,7.859,3C6.953,3,6.189,3.17,5.57,3.51z"/>
</svg>
