<?xml version="1.0"?>
<svg width="100%" height="100%" xmlns="http://www.w3.org/2000/svg" viewBox="0 0 100 100" preserveAspectRatio="xMidYMid">
  <rect x="46.5" y="40" width="7" height="20" rx="5" ry="5" fill="#29a5d9" transform="rotate(0 50 50) translate(0 -30)"/>
  <rect x="46.5" y="40" width="7" height="20" rx="5" ry="5" fill="#29a5d9" transform="rotate(30 50 50) translate(0 -30)"/>  
  <rect x="46.5" y="40" width="7" height="20" rx="5" ry="5" fill="#29a5d9" transform="rotate(60 50 50) translate(0 -30)"/>  
  <rect x="46.5" y="40" width="7" height="20" rx="5" ry="5" fill="#29a5d9" transform="rotate(90 50 50) translate(0 -30)"/>  
  <rect x="46.5" y="40" width="7" height="20" rx="5" ry="5" fill="#29a5d9" transform="rotate(120 50 50) translate(0 -30)"/>  
  <rect x="46.5" y="40" width="7" height="20" rx="5" ry="5" fill="#29a5d9" transform="rotate(150 50 50) translate(0 -30)"/>  
  <rect x="46.5" y="40" width="7" height="20" rx="5" ry="5" fill="#29a5d9" transform="rotate(180 50 50) translate(0 -30)"/>  
  <rect x="46.5" y="40" width="7" height="20" rx="5" ry="5" fill="#29a5d9" transform="rotate(210 50 50) translate(0 -30)"/>  
  <rect x="46.5" y="40" width="7" height="20" rx="5" ry="5" fill="#29a5d9" transform="rotate(240 50 50) translate(0 -30)"/>  
  <rect x="46.5" y="40" width="7" height="20" rx="5" ry="5" fill="#29a5d9" transform="rotate(270 50 50) translate(0 -30)"/>  
  <rect x="46.5" y="40" width="7" height="20" rx="5" ry="5" fill="#29a5d9" transform="rotate(300 50 50) translate(0 -30)"/>  
  <rect x="46.5" y="40" width="7" height="20" rx="5" ry="5" fill="#29a5d9" transform="rotate(330 50 50) translate(0 -30)"/>  
</svg>   	    
